<svg width="70" height="80" viewBox="0 0 70 80" fill="none" xmlns="http://www.w3.org/2000/svg">
<g id="carbon:report">
<path id="Vector" d="M21.875 45H39.375V50H21.875V45ZM21.875 32.5H48.125V37.5H21.875V32.5ZM21.875 57.5H32.8125V62.5H21.875V57.5Z" fill="#818181"/>
<path id="Vector_2" d="M54.6875 12.5H48.125V10C48.125 8.67392 47.6641 7.40215 46.8436 6.46447C46.0231 5.52678 44.9103 5 43.75 5H26.25C25.0897 5 23.9769 5.52678 23.1564 6.46447C22.3359 7.40215 21.875 8.67392 21.875 10V12.5H15.3125C14.1522 12.5 13.0394 13.0268 12.2189 13.9645C11.3984 14.9021 10.9375 16.1739 10.9375 17.5V70C10.9375 71.3261 11.3984 72.5979 12.2189 73.5355C13.0394 74.4732 14.1522 75 15.3125 75H54.6875C55.8478 75 56.9606 74.4732 57.7811 73.5355C58.6016 72.5979 59.0625 71.3261 59.0625 70V17.5C59.0625 16.1739 58.6016 14.9021 57.7811 13.9645C56.9606 13.0268 55.8478 12.5 54.6875 12.5ZM26.25 10H43.75V20H26.25V10ZM54.6875 70H15.3125V17.5H21.875V25H48.125V17.5H54.6875V70Z" fill="#818181"/>
</g>
</svg>
